<?xml version="1.0" encoding="utf-8"?>
<!-- Generator: Adobe Illustrator 23.0.1, SVG Export Plug-In . SVG Version: 6.00 Build 0)  -->
<svg version="1.1" id="Layer_1" xmlns="http://www.w3.org/2000/svg" xmlns:xlink="http://www.w3.org/1999/xlink" x="0px" y="0px"
	 width="327.4px" height="142.5px" viewBox="0 0 327.4 142.5" style="enable-background:new 0 0 327.4 142.5;" xml:space="preserve"
	>
<style type="text/css">
	.st0{clip-path:url(#SVGID_2_);fill:#231F20;}
	.st1{clip-path:url(#SVGID_4_);fill:#FFFFFF;}
	.st2{clip-path:url(#SVGID_6_);fill:url(#SVGID_7_);}
	.st3{fill:none;stroke:#70CF96;stroke-width:4;}
</style>
<g>
	<defs>
		<rect id="SVGID_1_" width="327.4" height="142.5"/>
	</defs>
	<clipPath id="SVGID_2_">
		<use xlink:href="#SVGID_1_"  style="overflow:visible;"/>
	</clipPath>
	<path class="st0" d="M4,0c0,0-4,0-4,4v134.5c0,0,0,4,4,4h319.4c0,0,4,0,4-4V4c0,0,0-4-4-4H4z"/>
</g>
<g>
	<defs>
		<rect id="SVGID_3_" x="61.2" y="41.9" width="206.1" height="59.3"/>
	</defs>
	<clipPath id="SVGID_4_">
		<use xlink:href="#SVGID_3_"  style="overflow:visible;"/>
	</clipPath>
	<path class="st1" d="M136.4,64.2c-0.5-0.2-1.7-0.3-2.8-0.3c-3.4,0-7.1,2.8-7.1,6.2v16.4h-7.9V57.3h7.6v3c1.8-2.2,5-3.6,8.5-3.6
		c1.1,0,1.8,0.1,2.7,0.2L136.4,64.2z"/>
	<path class="st1" d="M145.3,41.9c2.8,0,5.1,2.2,5.1,5s-2.3,5-5.1,5c-2.8,0-5.1-2.2-5.1-5S142.4,41.9,145.3,41.9 M149.2,86.6h-7.9
		V57.3h7.9V86.6z"/>
	<path class="st1" d="M172.4,56.7c-3.3,0-6.3,1.1-8.6,3v-2.4h-7.6v43.9h7.9V84.6c2.4,1.8,4.9,2.7,7.9,2.7c4.4,0,8.5-1.9,11.1-5
		c2.3-2.7,3.7-6.3,3.7-10.3C186.8,63.3,180.4,56.7,172.4,56.7 M171.5,80.1c-4.9,0-8.1-3.4-8.1-8.1c0-4.7,3.2-8.1,8.1-8.1
		c4.2,0,7.6,3.6,7.6,8.1C179,76.5,175.7,80.1,171.5,80.1"/>
	<rect x="226.7" y="43.7" class="st1" width="7.9" height="43"/>
	<path class="st1" d="M266.7,82c-2.8,3.4-7.5,5.3-12,5.3c-8.8,0-15.4-6.1-15.4-15.2c0-8.2,5.6-15.3,14.3-15.3
		c8.1,0,13.9,6.8,13.9,15c0,0.8-0.1,1.6-0.2,2.2h-20.3c0.4,4.1,3.8,7,7.9,7c3.3,0,6-1.9,7.4-3.4L266.7,82z M259.3,68.2
		c-0.2-2.6-2.6-5.1-5.8-5.1c-3.3,0-5.9,2.5-6.3,5.1H259.3z"/>
	<path class="st1" d="M207.7,56.7c-3.3,0-6.3,1.1-8.6,3v-2.4h-7.6v43.9h7.9V84.6c2.4,1.8,4.9,2.7,7.9,2.7c4.4,0,8.5-1.9,11.1-5
		c2.3-2.7,3.7-6.3,3.7-10.3C222.1,63.3,215.6,56.7,207.7,56.7 M206.7,80.1c-4.9,0-8.1-3.4-8.1-8.1c0-4.7,3.2-8.1,8.1-8.1
		c4.2,0,7.6,3.6,7.6,8.1C214.3,76.5,210.9,80.1,206.7,80.1"/>
</g>
<g>
	<defs>
		<path id="SVGID_5_" d="M91.8,46.7c-3.2,1.9-5.2,5.3-5.2,9.1c0,2,0.7,3.9,1.6,5.6c0.8,1.5,1.2,4.2-1.5,5.7c-2,1.1-4.5,0.4-5.7-1.6
			c-1-1.7-2.3-3.2-4.1-4.2c-3.2-1.9-7.2-1.9-10.5,0c-3.2,1.9-5.2,5.3-5.2,9.1c0,3.7,2,7.2,5.2,9.1c3.2,1.9,7.2,1.9,10.5,0
			c1.8-1,3-2.6,4.1-4.2c0.9-1.4,3-3.1,5.7-1.6c2,1.1,2.6,3.6,1.5,5.7c-0.9,1.7-1.6,3.6-1.6,5.6c0,3.7,2,7.2,5.2,9.1
			c3.2,1.9,7.2,1.9,10.5,0c3.2-1.9,5.2-5.3,5.2-9.1c0-3.7-2-7.2-5.2-9.1c-1.8-1-3.8-1.3-5.8-1.4c-1.7-0.1-4.1-1.1-4.1-4.1
			c0-2.3,1.8-4.1,4.1-4.1c2-0.1,4-0.4,5.8-1.4c3.2-1.9,5.2-5.3,5.2-9.1s-2-7.2-5.2-9.1c-1.6-0.9-3.4-1.4-5.2-1.4
			C95.3,45.3,93.4,45.8,91.8,46.7"/>
	</defs>
	<clipPath id="SVGID_6_">
		<use xlink:href="#SVGID_5_"  style="overflow:visible;"/>
	</clipPath>
	
		<linearGradient id="SVGID_7_" gradientUnits="userSpaceOnUse" x1="-235.0047" y1="694.4724" x2="-234.0047" y2="694.4724" gradientTransform="matrix(34.8147 34.8147 34.8147 -34.8147 -15925.7061 32416.2422)">
		<stop  offset="0" style="stop-color:#00B1F1"/>
		<stop  offset="1" style="stop-color:#0F72E5"/>
	</linearGradient>
	<polygon class="st2" points="84.4,22.1 132.9,70.6 84.4,119.1 35.9,70.6 	"/>
</g>
<polyline class="st3" points="13.4,22.6 23.1,32.3 39.6,13.8 "/>
</svg>
